<svg xmlns="http://www.w3.org/2000/svg" width="147" height="39" viewBox="0 0 147 39">
    <g fill="none" fill-rule="nonzero">
        <g>
            <rect width="147" height="39" fill="#000" rx="8"/>
            <path fill="#FFF" d="M54.805 29h-1.633l3.719-10.664h1.742L62.352 29h-1.727l-.992-3.055h-3.828l-1 3.055zm2.945-8.914h-.055l-1.508 4.61h3.063l-1.5-4.61zm9.883 9.039c-1.063 0-1.875-.508-2.32-1.25h-.055v3.953H63.68V20.766h1.53v1.195h.056c.46-.781 1.304-1.32 2.414-1.32 1.843 0 3.187 1.414 3.187 3.867v.742c0 2.43-1.32 3.875-3.234 3.875zm-.297-1.328c1.156 0 1.937-.922 1.937-2.649v-.585c0-1.649-.734-2.61-1.968-2.61-1.274 0-2.063 1.031-2.063 2.602v.593c0 1.618.797 2.649 2.094 2.649zm9.453 1.328c-1.062 0-1.875-.508-2.32-1.25h-.055v3.953h-1.578V20.766h1.531v1.195h.055c.46-.781 1.305-1.32 2.414-1.32 1.844 0 3.187 1.414 3.187 3.867v.742c0 2.43-1.32 3.875-3.234 3.875zm-.297-1.328c1.156 0 1.938-.922 1.938-2.649v-.585c0-1.649-.735-2.61-1.97-2.61-1.272 0-2.062 1.031-2.062 2.602v.593c0 1.618.797 2.649 2.094 2.649zm8-1.727h1.586c.094.97.93 1.79 2.492 1.79 1.422 0 2.297-.68 2.297-1.75 0-.844-.547-1.305-1.71-1.594l-1.798-.453c-1.328-.329-2.562-1.141-2.562-2.844 0-2.024 1.781-3.125 3.789-3.125 1.969 0 3.734 1.054 3.773 3.078h-1.554c-.086-.953-.82-1.727-2.243-1.727-1.265 0-2.148.602-2.148 1.657 0 .718.484 1.242 1.492 1.484l1.781.453c1.618.406 2.805 1.164 2.805 2.938 0 2.093-1.726 3.242-4.062 3.242-2.907 0-3.899-1.727-3.938-3.149zm10.578-5.304v-2.032h1.555v2.032h1.617v1.28h-1.617v4.563c0 .938.336 1.188 1.297 1.188.14 0 .266-.008.375-.016v1.227a5.18 5.18 0 0 1-.766.055c-1.984 0-2.476-.735-2.476-2.375v-4.641H93.93v-1.281h1.14zm8.305-.141c2.336 0 3.602 1.664 3.602 3.89v.696c0 2.289-1.258 3.93-3.602 3.93-2.352 0-3.625-1.641-3.625-3.93v-.688c0-2.226 1.273-3.898 3.625-3.898zm-.008 1.297c-1.336 0-2.031 1.062-2.031 2.633v.633c0 1.554.695 2.64 2.031 2.64 1.344 0 2.024-1.078 2.024-2.64v-.633c0-1.578-.688-2.633-2.024-2.633zM108.93 29v-8.234h1.578v1.047h.055c.218-.5.835-1.172 1.992-1.172.203 0 .39.015.554.039v1.414a4.191 4.191 0 0 0-.703-.047c-1.422 0-1.883.875-1.883 1.984V29h-1.593zm8.82.14c-2.18 0-3.547-1.484-3.547-3.882v-.867c0-2.258 1.313-3.766 3.484-3.766 2.18 0 3.47 1.547 3.47 3.844v.781h-5.384v.172c0 1.46.766 2.445 2.008 2.445.906 0 1.516-.453 1.75-1.187h1.524c-.274 1.343-1.352 2.46-3.305 2.46zm-1.977-5.046h3.829v-.024c0-1.226-.758-2.187-1.907-2.187-1.172 0-1.922.969-1.922 2.187v.024zM53.617 8.668h1.785c1.72 0 2.36 1.102 2.36 2.66 0 1.535-.617 2.672-2.36 2.672h-1.785V8.668zm.805.691v3.95h.91c1.078 0 1.598-.645 1.598-1.97 0-1.194-.422-1.98-1.598-1.98h-.91zm5.883.454c1.168 0 1.8.832 1.8 1.945v.347c0 1.145-.628 1.965-1.8 1.965-1.176 0-1.813-.82-1.813-1.965v-.343c0-1.114.637-1.95 1.813-1.95v.001zm-.004.648c-.668 0-1.016.531-1.016 1.316v.317c0 .777.348 1.32 1.016 1.32.672 0 1.011-.539 1.011-1.32v-.317c0-.789-.343-1.316-1.011-1.316zm7.941-.578L67.172 14h-.824l-.891-3.094h-.02L64.547 14h-.824l-1.07-4.117h.796l.711 3.183h.035l.88-3.183h.75l.882 3.183h.031l.711-3.183h.793zM69.016 14V9.883h.777v.562h.027c.145-.27.524-.629 1.2-.629.843 0 1.457.536 1.457 1.54V14h-.786v-2.496c0-.672-.394-.992-.941-.992-.648 0-.95.46-.95 1.011V14h-.784zm4.57 0V8.387h.785V14h-.785zm3.598-4.188c1.168 0 1.8.833 1.8 1.946v.347c0 1.145-.629 1.965-1.8 1.965-1.176 0-1.813-.82-1.813-1.965v-.343c0-1.114.637-1.95 1.813-1.95zm-.004.649c-.668 0-1.016.531-1.016 1.316v.317c0 .777.348 1.32 1.016 1.32.672 0 1.011-.539 1.011-1.32v-.317c0-.789-.343-1.316-1.011-1.316zm5.066 3.031c-.191.32-.558.574-1.168.574-.797 0-1.344-.488-1.344-1.25 0-.726.504-1.187 1.45-1.191h1.058v-.402c0-.5-.289-.774-.805-.774-.492 0-.773.254-.808.637h-.742c.039-.707.515-1.27 1.574-1.27.898 0 1.566.465 1.566 1.364V14h-.754v-.508h-.027zm-.937-.047c.53 0 .933-.332.933-.808v-.465h-.949c-.527 0-.762.25-.762.605 0 .453.375.668.778.668zm4.277-3.629c.55 0 .98.274 1.18.645h.027V8.387h.789V14h-.766v-.625h-.023c-.219.422-.652.684-1.207.684-1.05 0-1.621-.774-1.621-1.938v-.367c0-1.14.601-1.938 1.62-1.938h.001zm.172.664c-.574 0-.992.43-.992 1.301v.317c0 .867.418 1.297 1 1.297.64 0 1.035-.461 1.035-1.293v-.32c0-.794-.399-1.302-1.043-1.302zm6.215-.668c1.168 0 1.8.833 1.8 1.946v.347c0 1.145-.628 1.965-1.8 1.965-1.176 0-1.813-.82-1.813-1.965v-.343c0-1.114.637-1.95 1.813-1.95zm-.004.649c-.668 0-1.016.531-1.016 1.316v.317c0 .777.348 1.32 1.016 1.32.672 0 1.011-.539 1.011-1.32v-.317c0-.789-.343-1.316-1.011-1.316zM94.75 14V9.883h.777v.562h.028c.144-.27.523-.629 1.199-.629.844 0 1.457.536 1.457 1.54V14h-.785v-2.496c0-.672-.395-.992-.942-.992-.648 0-.949.46-.949 1.011V14h-.785zm6.414-4.117V8.867h.777v1.016h.809v.64h-.809v2.282c0 .468.168.593.649.593.07 0 .133-.003.187-.007v.613a2.591 2.591 0 0 1-.382.027c-.993 0-1.239-.367-1.239-1.187v-2.32h-.562v-.641h.57zM103.746 14V8.387h.79v2.058h.026c.145-.27.52-.629 1.192-.629.844 0 1.46.536 1.46 1.54V14h-.788v-2.496c0-.672-.39-.992-.942-.992-.652 0-.949.46-.949 1.011V14h-.789zm6.152.07c-1.09 0-1.773-.742-1.773-1.941v-.434c0-1.129.656-1.883 1.742-1.883 1.09 0 1.735.774 1.735 1.922v.391h-2.692v.086c0 .73.383 1.223 1.004 1.223.453 0 .758-.227.875-.594h.762c-.137.672-.676 1.23-1.653 1.23zm-.988-2.523h1.914v-.012c0-.613-.379-1.094-.953-1.094-.586 0-.96.485-.96 1.094v.012h-.001z"/>
        </g>
        <g fill="#FFF">
            <path d="M34.91 13.811c2.547 0 4.18 2.416 4.18 2.416S36.6 17.549 36.6 20.42c0 3.407 3.124 4.398 3.124 4.398s-2.465 5.73-5.235 5.73c-1.557 0-1.66-.877-3.73-.877-1.797 0-2.403.877-3.773.877-2.61 0-5.987-5.586-5.987-10.128 0-4.719 3.418-6.609 5.56-6.609 1.881 0 2.665 1.084 4.18 1.084 1.273 0 2.277-1.084 4.168-1.084h.001z"/>
            <path d="M34.47 9c.375 2.313-1.766 5.173-4.325 5.08-.377-2.943 2.381-4.925 4.325-5.08z"/>
        </g>
    </g>
</svg>
