<svg xmlns="http://www.w3.org/2000/svg" width="147" height="39" viewBox="0 0 147 39">
    <g fill="none" fill-rule="nonzero">
        <g>
            <rect width="147" height="39" fill="#000" rx="8"/>
            <path fill="#FFF" d="M94.584 26.01l-.807.767c-.187.103-.373.223-.558.309-.56.255-1.13.32-1.637.32-.539 0-1.384-.035-2.246-.663-1.198-.85-1.721-2.31-1.721-3.582 0-2.634 2.13-3.926 3.867-3.926.606 0 1.23.153 1.737.476.844.56 1.061 1.29 1.182 1.682l-3.966 1.613-1.3.102c.421 2.16 1.872 3.416 3.476 3.416.801 0 1.396-.263 1.941-.535 0 0 .11-.058.032.021z"/>
            <path fill="#000" d="M92.19 21.714l-3.071 1.342c-.018-.304-.052-.61-.052-.897 0-1.835 1.266-2.364 1.94-2.364.91 0 1.673.784 1.673 1.463 0 .236-.167.339-.49.456z"/>
            <path fill="#FFF" d="M86.29 25.879c0 .66.116.763.67.814.29.035.578.05.863.084l-.625.374h-2.974c.39-.51.457-.56.457-.9v-.38l-.006-10.1H83.36l1.265-.614h2.414c-.524.306-.68.49-.747 1.086l-.004 9.636h.002z"/>
            <path fill="#FFF" d="M81.677 20.069c.387.32 1.195 1 1.195 2.292 0 1.259-.704 1.851-1.415 2.413-.217.221-.473.46-.473.831 0 .376.256.58.439.732l.61.474c.741.63 1.416 1.207 1.416 2.38 0 1.598-1.536 3.21-4.44 3.21-2.445 0-3.627-1.172-3.627-2.43 0-.612.303-1.479 1.3-2.072 1.047-.644 2.465-.73 3.224-.78-.237-.308-.509-.63-.509-1.158 0-.288.087-.46.17-.661a5.9 5.9 0 0 1-.54.035c-1.79 0-2.801-1.344-2.801-2.67 0-.78.354-1.648 1.081-2.276.962-.797 2.11-.934 3.02-.934h3.479l-1.081.614h-1.049.001z"/>
            <path fill="#000" d="M80.966 24.383a1.72 1.72 0 0 1-1.145.476c-1.45 0-2.11-1.887-2.11-3.025 0-.441.086-.901.372-1.255.293-.35.723-.556 1.18-.563 1.403 0 2.127 1.904 2.127 3.126 0 .307-.034.849-.424 1.24v.001zm-.486 3.228c-.138-.017-.22-.017-.388-.017-.153 0-1.065.032-1.771.271-.373.138-1.453.544-1.453 1.75 0 1.205 1.166 2.074 2.969 2.074 1.62 0 2.481-.782 2.481-1.835 0-.866-.557-1.324-1.838-2.243z"/>
            <path fill="#FFF" d="M71.212 27.37c-2.683 0-4.117-2.103-4.117-4.007 0-2.224 1.804-4.128 4.37-4.128 2.482 0 4.035 1.956 4.035 4.008 0 2.006-1.535 4.128-4.288 4.128v-.001z"/>
            <path fill="#000" d="M73.323 25.996c-.389.543-1.062.865-1.722.865-2.046 0-2.87-2.769-2.87-4.448 0-.732.117-1.48.777-2.074a2.344 2.344 0 0 1 1.521-.577c2.093 0 2.8 2.854 2.8 4.35 0 .662-.098 1.34-.506 1.884z"/>
            <path fill="#FFF" d="M62.231 27.37c-2.683 0-4.116-2.103-4.116-4.007 0-2.224 1.806-4.128 4.371-4.128 2.48 0 4.032 1.956 4.032 4.008 0 2.006-1.535 4.128-4.287 4.128v-.001z"/>
            <path fill="#000" d="M64.343 25.996c-.39.543-1.063.865-1.722.865-2.042 0-2.87-2.769-2.87-4.448 0-.732.118-1.48.778-2.074.42-.368.96-.572 1.518-.577 2.091 0 2.801 2.854 2.801 4.35 0 .662-.1 1.34-.505 1.884z"/>
            <path fill="#FFF" d="M56.9 26.926l-2.262.522c-.917.145-1.74.273-2.612.273-4.364 0-6.026-3.234-6.026-5.765C46 18.866 48.356 16 52.39 16c.854 0 1.675.126 2.424.332 1.185.335 1.74.749 2.087.99l-1.315 1.258-.554.124.395-.634c-.535-.526-1.519-1.497-3.385-1.497-2.496 0-4.38 1.91-4.38 4.699 0 2.995 2.15 5.813 5.599 5.813 1.013 0 1.534-.205 2.008-.397V24.12l-2.389.13 1.266-.685H57.5l-.41.397c-.11.095-.125.127-.157.254-.016.145-.031.606-.031.768v1.942H56.9zm42.547-.843v4.328h-.854V19.398h.854v1.253A3.387 3.387 0 0 1 102.2 19.2c2.116 0 3.542 1.616 3.542 4.176 0 2.541-1.426 4.192-3.542 4.192-1.114 0-2.113-.578-2.753-1.485z"/>
            <path fill="#000" d="M104.825 23.376c0 1.931-.999 3.415-2.769 3.415-1.1 0-2.152-.902-2.609-1.662v-3.525c.457-.758 1.509-1.629 2.609-1.629 1.771 0 2.769 1.472 2.769 3.4v.001z"/>
            <path fill="#FFF" d="M106.908 16.358h.853V27.37h-.853V16.358zm10.432 13.34c.183.083.494.132.692.132.522 0 .886-.214 1.212-.973l.623-1.42-3.363-8.038h.952l2.885 6.965 2.856-6.965h.966l-4.1 9.724c-.426 1.001-1.096 1.484-2.016 1.484-.276 0-.64-.05-.853-.116l.147-.793h-.001zm-2.493-2.352c-.05-.24-.094-.481-.132-.723a4.885 4.885 0 0 1-.04-.622c-.294.433-.708.792-1.237 1.077-.53.285-1.035.425-1.725.425-.832 0-1.477-.207-1.938-.624-.459-.417-.69-.983-.69-1.698s.334-1.295 1.002-1.738c.666-.446 1.529-.668 2.596-.668h1.99v-.99c0-.57-.193-1.019-.578-1.344-.386-.326-.93-.49-1.634-.49-.644 0-1.166.15-1.563.443-.395.299-.593.67-.593 1.116h-.873l-.018-.043c-.032-.602.241-1.13.823-1.586.58-.455 1.338-.685 2.271-.685.932 0 1.684.225 2.252.676.567.446.851 1.09.851 1.931v3.932c0 .283.014.556.05.821.035.267.093.533.169.79h-.983z"/>
            <path fill="#000" d="M111.817 26.72c.726 0 1.246-.164 1.78-.486.528-.321.889-.74 1.077-1.246v-1.531h-2c-.764 0-1.397.17-1.895.514-.499.342-.751.757-.751 1.238 0 .455.16.819.479 1.094.318.278.754.417 1.31.417z"/>
            <path fill="#FFF" d="M50.598 9.32h-.793c-.086-.722-.617-1.058-1.235-1.058-.75 0-1.363.504-1.363 1.703v.71c0 1.06.445 1.735 1.355 1.735.75 0 1.27-.469 1.27-1.105v-.457h-1.285v-.657h2.062v1.086c0 .746-.507 1.832-2.047 1.832-1.457 0-2.16-.972-2.16-2.433V9.96c0-1.504.856-2.402 2.184-2.402 1.285 0 1.957.84 2.012 1.761v.001zm2.605 3.75c-1.09 0-1.773-.742-1.773-1.941v-.434c0-1.129.656-1.883 1.742-1.883 1.09 0 1.734.774 1.734 1.922v.391h-2.691v.086c0 .73.383 1.223 1.004 1.223.453 0 .758-.227.875-.594h.761c-.136.672-.675 1.23-1.652 1.23zm-.988-2.523h1.914v-.012c0-.613-.379-1.094-.953-1.094-.586 0-.961.485-.961 1.094v.012zm3.93-1.664V7.867h.777v1.016h.808v.64h-.808v2.282c0 .468.168.593.648.593.07 0 .133-.003.188-.007v.613a2.592 2.592 0 0 1-.383.027c-.992 0-1.238-.367-1.238-1.187v-2.32h-.563v-.641h.571zM60.285 13V8.883h.79V13h-.79zM60.2 7.879c0-.266.215-.465.48-.465.266 0 .481.2.481.465a.467.467 0 0 1-.48.465c-.266 0-.48-.2-.48-.465H60.2zm2.317 1.004V7.867h.777v1.016h.809v.64h-.809v2.282c0 .468.168.593.648.593.07 0 .133-.003.188-.007v.613a2.592 2.592 0 0 1-.383.027c-.992 0-1.238-.367-1.238-1.187v-2.32h-.563v-.641h.571zm5.746-.07c1.168 0 1.8.832 1.8 1.945v.347c0 1.145-.628 1.965-1.8 1.965-1.176 0-1.813-.82-1.813-1.965v-.343c0-1.114.637-1.95 1.813-1.95v.001zm-.004.648c-.668 0-1.016.531-1.016 1.316v.317c0 .777.348 1.32 1.016 1.32.672 0 1.012-.539 1.012-1.32v-.317c0-.789-.344-1.316-1.012-1.316zM71.039 13V8.883h.777v.562h.028c.144-.27.523-.629 1.199-.629.844 0 1.457.536 1.457 1.54V13h-.785v-2.496c0-.672-.395-.992-.942-.992-.648 0-.949.46-.949 1.011V13h-.785z"/>
        </g>
        <path fill="#FFF" d="M14.582 30.181c-.352-.097-.582-.453-.582-1.004V10.979c0-.51.195-.853.503-.979l8.804 10.14-8.725 10.041zm1.213-.387l10.597-6.1-2.582-2.974-8.015 9.074zm10.669-13.287L16.016 10.49l7.81 9.053 2.638-3.037v.001zm.71.407l4.092 2.357c.775.447.783 1.166 0 1.616l-4.197 2.416-2.737-3.174 2.841-3.216v.001z"/>
    </g>
</svg>
